<?xml version="1.0" standalone="no"?>
<!DOCTYPE svg PUBLIC "-//W3C//DTD SVG 20010904//EN"
 "http://www.w3.org/TR/2001/REC-SVG-20010904/DTD/svg10.dtd">
<svg version="1.0" xmlns="http://www.w3.org/2000/svg"
 width="1259.000000pt" height="1259.000000pt" viewBox="0 0 1259.000000 1259.000000"
 preserveAspectRatio="xMidYMid meet">
<metadata>
Created by potrace 1.14, written by Peter Selinger 2001-2017
</metadata>
<g transform="translate(0.000000,1259.000000) scale(0.100000,-0.100000)"
fill="#000000" stroke="none">
<path d="M7170 11899 c-88 -11 -228 -53 -298 -88 -123 -62 -190 -125 -334
-316 -118 -156 -199 -216 -312 -230 -45 -6 -67 -2 -142 25 -159 58 -212 69
-324 69 -365 2 -722 -210 -822 -488 -18 -48 -21 -83 -22 -246 -2 -217 -15
-277 -87 -384 -48 -72 -113 -118 -236 -166 -112 -45 -171 -93 -203 -167 -30
-69 -24 -116 35 -257 83 -203 112 -347 140 -696 15 -190 36 -308 77 -420 23
-65 45 -99 34 -52 -16 68 -18 126 -8 215 7 54 17 153 22 222 22 248 89 524
178 731 59 137 350 704 410 800 60 95 118 146 177 155 82 12 137 -14 300 -142
143 -113 301 -170 440 -161 104 6 165 28 405 142 298 142 452 190 790 246 105
18 177 23 320 23 175 1 190 0 272 -27 112 -35 202 -95 250 -167 50 -73 134
-266 261 -595 144 -373 160 -424 160 -515 -1 -120 -37 -208 -150 -371 -88
-127 -108 -189 -82 -256 17 -46 49 -73 149 -123 145 -73 206 -142 261 -292 25
-68 64 -246 56 -254 -1 -2 -286 -57 -632 -124 -347 -66 -635 -123 -642 -125
-24 -8 -61 36 -82 95 -36 108 -113 191 -234 253 l-48 24 103 16 c57 10 132 17
168 17 129 0 273 -52 413 -149 40 -28 79 -51 85 -51 54 0 -84 165 -208 250
-73 49 -162 94 -229 114 -110 32 -328 48 -591 41 -439 -11 -497 -23 -604 -127
-75 -73 -89 -138 -29 -138 15 0 75 9 132 20 57 11 145 23 195 26 l91 5 -66
-29 c-158 -69 -265 -186 -285 -311 -4 -23 -8 -41 -9 -41 -2 0 -54 9 -117 19
-62 11 -160 22 -218 26 -111 7 -176 -4 -382 -69 l-77 -23 -10 48 c-34 158
-170 286 -356 334 -80 22 -233 22 -314 0 -143 -37 -275 -135 -329 -244 -24
-49 -27 -68 -27 -151 0 -84 3 -102 28 -151 117 -240 481 -339 752 -205 134 66
213 159 242 284 l17 70 115 36 c64 19 138 41 164 47 64 16 303 5 421 -18 l89
-18 14 -60 c18 -79 50 -131 123 -198 111 -103 247 -151 430 -151 182 0 331 52
442 153 59 54 118 153 118 197 0 13 9 28 20 34 17 9 27 7 53 -11 30 -22 31
-22 14 -2 -18 21 -18 21 0 27 10 3 290 57 623 121 333 64 613 118 622 121 15
4 18 -5 20 -72 l3 -77 32 49 c82 128 230 254 345 294 115 40 190 20 277 -76
59 -65 104 -149 122 -231 7 -29 18 -58 25 -64 20 -17 37 30 91 246 l47 190 -1
175 c-3 225 -38 777 -58 899 -46 278 -144 601 -264 864 -93 206 -225 338 -421
422 -105 45 -150 77 -235 166 -73 77 -131 175 -179 302 -83 220 -216 367 -457
504 -295 168 -723 254 -1049 212z m-245 -3649 c33 -5 114 -11 180 -13 118 -4
123 -5 195 -43 41 -21 97 -62 126 -90 49 -49 99 -133 92 -153 -1 -6 -34 10
-72 34 -166 108 -391 148 -566 101 -86 -24 -204 -83 -254 -128 -54 -49 -31
-49 77 2 92 43 218 80 274 80 l34 0 -20 -26 c-71 -90 -33 -204 77 -234 104
-27 199 65 178 172 -3 18 -14 40 -23 50 -15 16 -15 18 0 18 31 0 163 -52 236
-93 l73 -42 -5 -57 c-14 -153 -174 -297 -384 -344 -115 -25 -294 -16 -393 21
-263 97 -378 302 -282 497 55 113 177 204 322 242 68 18 63 18 135 6z m-1686
-45 c144 -34 269 -124 327 -235 26 -49 29 -65 29 -150 0 -81 -4 -102 -25 -145
-53 -108 -182 -203 -325 -240 -76 -19 -224 -19 -300 0 -144 38 -266 130 -321
242 -25 50 -29 69 -29 143 0 76 4 92 32 145 58 112 177 200 323 239 72 19 209
20 289 1z"/>
<path d="M5091 8090 c-104 -28 -176 -63 -238 -116 -55 -48 -66 -72 -16 -36 38
26 139 76 186 92 40 13 147 29 147 23 0 -3 -13 -16 -30 -29 -82 -69 -47 -213
60 -244 58 -17 129 11 160 63 24 39 26 106 5 147 -9 17 -12 30 -9 30 15 0 102
-55 162 -103 35 -27 65 -47 69 -44 10 11 -37 75 -90 123 -116 105 -250 136
-406 94z"/>
<path d="M4865 8511 c-53 -24 -151 -114 -141 -129 5 -8 50 -12 144 -12 75 0
155 -5 176 -11 22 -6 139 -57 260 -114 362 -167 422 -180 420 -88 -3 86 -103
222 -198 267 -35 17 -83 28 -152 36 -56 6 -167 24 -245 40 -167 35 -209 36
-264 11z"/>
<path d="M5672 6371 c-185 -51 -386 -204 -578 -441 -84 -104 -189 -181 -367
-270 -83 -41 -152 -80 -155 -87 -8 -28 42 -38 183 -37 219 1 344 30 818 184
169 55 230 70 276 70 72 0 205 -38 547 -155 423 -144 643 -205 748 -205 23 0
65 7 94 15 82 25 191 136 155 158 -5 3 -35 -4 -68 -14 -76 -25 -160 -27 -201
-6 -18 9 -56 47 -85 84 -125 160 -490 541 -554 579 -64 37 -146 62 -330 100
-221 46 -376 53 -483 25z"/>
<path d="M8756 5678 c-3 -7 -9 -42 -16 -78 -27 -149 -109 -337 -222 -503 -90
-134 -284 -324 -423 -416 -310 -204 -867 -412 -1293 -482 l-133 -22 73 -74
c40 -41 142 -124 226 -185 l152 -110 0 -622 1 -621 321 805 321 805 595 470
594 469 -5 204 -5 203 -78 85 c-77 82 -101 97 -108 72z"/>
<path d="M8977 5166 l6 -324 -129 -283 -128 -284 -807 -905 -807 -905 -501
-720 -500 -720 692 -7 c421 -5 863 -4 1127 3 239 6 568 13 730 16 l295 5 567
320 567 320 -97 116 c-53 65 -190 227 -303 362 -113 135 -322 387 -465 561
l-259 317 -170 313 c-264 486 -267 491 -256 487 6 -1 299 -232 653 -513 l643
-509 479 -54 c263 -29 481 -50 484 -47 3 3 -53 245 -125 538 l-130 532 -124
87 c-195 137 -344 266 -552 477 -327 333 -410 438 -642 816 -95 154 -201 297
-234 314 -19 11 -19 7 -14 -313z"/>
<path d="M5006 5281 c-10 -10 -33 -61 -52 -112 -43 -115 -94 -210 -220 -410
-258 -408 -625 -880 -825 -1060 -48 -42 -85 -80 -82 -82 2 -3 -16 -156 -42
-341 l-46 -336 92 -308 c50 -169 94 -310 98 -315 4 -4 153 77 331 180 l324
188 484 575 c266 316 487 576 491 578 8 3 -202 -928 -218 -963 -5 -11 -398
-339 -874 -729 l-866 -709 22 -27 c12 -14 86 -103 165 -197 l143 -170 782 -7
c430 -3 913 -9 1072 -12 l290 -5 500 722 c275 397 502 725 503 730 6 15 -1230
1739 -1247 1739 -35 0 -183 83 -236 133 -48 45 -69 79 -159 257 -56 113 -147
279 -201 370 -54 91 -116 202 -137 248 -41 87 -59 99 -92 63z"/>
<path d="M8366 4613 l-579 -458 -284 -710 c-155 -390 -299 -750 -318 -800
l-35 -90 33 35 c19 19 368 410 776 868 l742 833 125 275 125 276 -3 115 -3
114 -579 -458z m-487 -547 c6 -7 18 -37 27 -66 20 -68 52 -100 99 -100 45 0
85 -37 85 -78 0 -40 -19 -53 -71 -50 -42 3 -44 2 -47 -26 -2 -17 7 -50 23 -81
45 -90 18 -129 -90 -130 l-60 0 -14 -47 c-8 -27 -18 -48 -22 -48 -5 0 -13 19
-20 43 -19 72 -38 98 -85 119 -62 27 -64 42 -15 87 22 21 41 44 41 51 0 6 -11
25 -25 42 -36 43 -32 64 16 88 46 24 69 67 69 129 0 31 6 44 26 60 31 24 47
26 63 7z"/>
<path d="M5906 4179 c18 -30 1158 -1625 1170 -1639 12 -12 14 85 14 620 l-1
635 -127 90 c-69 50 -173 134 -229 189 l-102 98 -95 -11 c-182 -21 -442 -11
-610 25 -22 5 -27 3 -20 -7z m798 -250 c22 -17 26 -29 26 -68 0 -59 25 -95 81
-118 47 -18 52 -48 14 -83 -36 -34 -32 -62 13 -96 65 -49 64 -61 -8 -87 -55
-20 -82 -51 -100 -115 -13 -49 -29 -50 -44 -4 -17 50 -30 57 -101 54 -58 -3
-67 -1 -91 23 -30 30 -28 60 8 109 12 16 21 45 22 65 l1 36 -58 1 c-62 1 -77
10 -77 52 0 32 43 72 78 72 74 0 111 31 132 111 7 24 17 50 22 57 16 18 52 15
82 -9z"/>
<path d="M10580 3757 c0 -2 59 -243 131 -536 71 -293 128 -536 125 -539 -3 -3
-232 19 -509 50 l-502 55 -585 463 c-322 254 -594 470 -604 479 -21 17 -8 -8
216 -421 l139 -256 262 -319 c144 -176 401 -486 571 -688 253 -303 305 -371
293 -379 -8 -6 -258 -148 -556 -316 l-541 -305 213 -7 c116 -3 354 -16 527
-27 803 -54 1478 -55 2233 -5 200 13 263 14 321 5 40 -7 79 -9 88 -6 26 10 76
115 103 216 64 241 79 534 46 879 -49 514 -122 728 -316 925 -101 102 -153
130 -370 194 -422 124 -884 314 -1178 484 -95 55 -107 61 -107 54z"/>
<path d="M5054 3197 l-449 -534 -333 -193 c-183 -106 -340 -193 -349 -194 -12
-1 -38 73 -114 329 l-99 330 45 329 c25 181 44 331 42 332 -2 2 -36 -21 -75
-51 -184 -138 -348 -216 -942 -445 -517 -200 -893 -369 -1055 -474 -305 -199
-547 -502 -604 -759 -26 -114 -83 -625 -79 -714 3 -89 4 -94 34 -124 47 -47
108 -58 384 -70 227 -10 284 -8 790 20 300 17 597 36 660 43 63 6 310 14 548
17 l433 6 -166 198 c-92 109 -165 200 -163 201 1 2 397 325 878 718 l875 716
98 422 c53 233 95 425 93 427 -2 2 -206 -236 -452 -530z"/>
</g>
</svg>
